<svg id="Layer_1" data-name="Layer 1" xmlns="http://www.w3.org/2000/svg" viewBox="0 0 310 310"><defs><style>.cls-1{fill:#d62b27;}.cls-2{fill:#bbb;}.cls-3{fill:#d34a3d;}.cls-4{fill:#e1e1e1;}.cls-5{fill:#cfcece;}.cls-6{fill:#ab3c31;}.cls-7{fill:#d44b3d;}.cls-8{fill:#b3b2b2;}.cls-9{fill:#ab221f;}.cls-10{fill:#ae2320;}.cls-11{fill:#e2e2e2;}</style></defs><title>Servers icons</title><path class="cls-1" d="M265,63.16h2.74a18.93,18.93,0,0,1,3,.4,16.27,16.27,0,0,1,6.42,3.66A15.85,15.85,0,0,1,281.82,75a13.9,13.9,0,0,1,.22,6.58,14.7,14.7,0,0,1-2.35,5.9,23.2,23.2,0,0,1-6.05,5.64c-5.89,4.22-11.73,8.51-17.6,12.76-1.09.79-2.21,1.54-3.24,2.41a6.76,6.76,0,0,1-1,.8,1.22,1.22,0,0,0-.61,1.25c0,.31,0,.62,0,.93q0,69.32,0,138.64a3.17,3.17,0,0,1-.12,1.35.34.34,0,0,1-.17.15c-.29-.08-.27-.34-.29-.55a9.26,9.26,0,0,1,0-1q0-69.45,0-138.91a2.42,2.42,0,0,0-.06-.87c-.27,0-.41.17-.59.3q-8.64,6.25-17.25,12.54-11.87,8.62-23.72,17.28l-18.39,13.4L165.23,172l-6.43,4.69a1.7,1.7,0,0,1-.93.47,2.5,2.5,0,0,1-1-.59l-18.09-13.18Q127.5,155.22,116.21,147q-8.38-6.08-16.73-12.19L80.53,121,66.35,110.72l-.25-.19c-.31-.25-.46-.21-.46.22,0,1.12,0,2.24,0,3.36,0,.6,0,1.2,0,1.8a4.71,4.71,0,0,1,.06.93q0,66.61,0,133.21a5.34,5.34,0,0,1-.08,1,.64.64,0,0,1-.08.22c-.18.23-.43.21-.68.21-5.41,0-10.81.07-16.22,0a13.58,13.58,0,0,1-7.12-2.34,15.39,15.39,0,0,1-7-10.21,14.68,14.68,0,0,1-.16-3q0-78.81,0-157.63a13,13,0,0,1,3.55-9.1,15.9,15.9,0,0,1,13.41-5.33c.64.16,1.3.21,2,.32a14.85,14.85,0,0,1,6.32,2.76Q72,76,84.48,85.05L113.24,106l25.95,18.87,17.85,13c.89.65.89.64,1.76,0q12.31-9,24.64-18L199,108.38l24.19-17.69L241,77.7q8.21-6,16.41-12a17.27,17.27,0,0,1,3.51-1.84,10.13,10.13,0,0,1,3.56-.63C264.64,63.22,264.81,63.28,265,63.16Z"/><path class="cls-2" d="M250.81,251.34H66.23l-.81,0a.16.16,0,0,1,0-.1l.17-.13A5.22,5.22,0,0,1,67,251H198.44a3.28,3.28,0,0,0,.79,0c0-.17-.1-.24-.18-.33l-.66-.66c-6.64-6.76-13.38-13.41-20-20.17-5.14-5.24-10.41-10.35-15.51-15.62s-10.38-10.37-15.5-15.63c-2.2-2.26-4.42-4.48-6.63-6.73a2.48,2.48,0,0,1-.44-.52.49.49,0,0,1-.05-.19c0-.35.31-.52.55-.71,4.85-3.88,9.67-7.79,14.51-11.67.58-.47,1.15-.95,1.74-1.41.21-.17.42-.36.72-.25s.41-.17.59-.3l54.09-39.44q18.88-13.76,37.78-27.5l.5-.34a1.64,1.64,0,0,1,.08.8q0,28.48,0,57,0,41.51,0,83C250.81,250.63,250.81,251,250.81,251.34Z"/><path class="cls-3" d="M50.27,66.26a13.37,13.37,0,0,1,8.2,2.89c3.09,2.35,6.27,4.58,9.41,6.86l10.17,7.4,10.08,7.32,9.92,7.21,9.38,6.8,9.22,6.71,9.43,6.85,9.22,6.7,9.48,6.88,9.22,6.71c1.14.82,2.3,1.62,3.43,2.45a.71.71,0,0,0,.94,0c2.36-1.6,4.62-3.34,6.92-5l11.3-8.27,8.74-6.42,11.3-8.27,11.08-8.15L218.54,97l8.69-6.38,9.45-6.92L245.83,77c3.51-2.58,7-5.14,10.54-7.74a18.8,18.8,0,0,1,6-3.3,13.21,13.21,0,0,1,9.55.68,12.81,12.81,0,0,1,6.51,6.53,13.64,13.64,0,0,1-1.24,13.22,16.35,16.35,0,0,1-4.38,4.15q-8.65,6.29-17.28,12.59-7.62,5.54-15.24,11.07c-4.41,3.21-8.79,6.45-13.2,9.66q-6.23,4.55-12.48,9.07l-10.36,7.56-9.77,7.11-10,7.27-9.92,7.22-8.86,6.47L158.27,174a.5.5,0,0,1-.71,0q-8.48-6.2-17-12.37c-4.41-3.2-8.85-6.38-13.26-9.59-4.83-3.51-9.64-7-14.47-10.56q-6.41-4.67-12.84-9.31L88.75,124l-11.49-8.33-12.12-8.82L54.55,99.13c-4.16-3-8.38-6-12.47-9.09a13.3,13.3,0,0,1-5.25-9.56,12,12,0,0,1,3-9.52,13.46,13.46,0,0,1,8.67-4.58A16.9,16.9,0,0,1,50.27,66.26Z"/><path class="cls-4" d="M51.39,64.06H260.87c-2.95,1.14-5.29,3.22-7.79,5.05q-37.31,27.25-74.59,54.54-10,7.34-20.06,14.68a.73.73,0,0,1-1.05,0q-40.81-29.7-81.63-59.38C70.34,75,64.92,71.1,59.53,67.14a15.66,15.66,0,0,0-7.9-3A1.54,1.54,0,0,1,51.39,64.06Z"/><path class="cls-5" d="M140.33,191v.11a4.37,4.37,0,0,1-1.18,1.08q-7.53,6.1-15.1,12.16L108.6,216.81,91,231q-7.75,6.23-15.5,12.46-4.36,3.5-8.71,7a3.86,3.86,0,0,1-1.24.8h-.13c0-.23,0-.45,0-.68q0-67,0-133.9c0-.33,0-.66,0-1,.36-.09.52.2.71.39,1.4,1.38,2.75,2.82,4.13,4.22,4.19,4.25,8.48,8.41,12.64,12.68,5.43,5.59,11,11,16.46,16.59,4.94,5.09,10.05,10,15,15.09s10.31,10.26,15.36,15.5c3.33,3.45,6.76,6.78,10.1,10.2C140,190.54,140.3,190.7,140.33,191Z"/><path class="cls-6" d="M252.9,107.94l7.15-5.23,10-7.24c2.07-1.51,4.15-3,6.19-4.55a17.46,17.46,0,0,0,3.31-3.51.85.85,0,0,1,.24.68c0,.33,0,.66,0,1q0,73.45,0,146.9a13.32,13.32,0,0,1-4.6,10.27c-.76.48-1.46,1.06-2.25,1.51a14.68,14.68,0,0,1-4.81,1.67h-.23a7.61,7.61,0,0,1-2.22.18H254.21a4.58,4.58,0,0,1-.81,0,.69.69,0,0,1-.61-.61,4.89,4.89,0,0,1,0-.81q0-69.59,0-139.18A3.34,3.34,0,0,1,252.9,107.94Z"/><path class="cls-7" d="M36.72,87.56a18.34,18.34,0,0,1,1.68,2,18.86,18.86,0,0,0,3.81,3.34q5.37,3.94,10.76,7.85,4.91,3.58,9.82,7.15a1,1,0,0,1,.43.88c0,1.78,0,3.57,0,5.35q0,67,0,133.94a3.69,3.69,0,0,0,0,.43c.05.44-.1.62-.58.62-4.54,0-9.08.08-13.62,0a12,12,0,0,1-7.22-2.78,13.23,13.23,0,0,1-4.92-8.15,10,10,0,0,1-.16-1.85q0-74,0-148.06Q36.72,87.9,36.72,87.56Z"/><path class="cls-8" d="M140.33,191c-.14-.12-.29-.23-.42-.36-3.14-3.13-6.32-6.23-9.39-9.42-4.79-5-9.78-9.73-14.57-14.69-5.2-5.38-10.6-10.56-15.8-15.93-4.83-5-9.84-9.79-14.66-14.78-5.2-5.38-10.57-10.58-15.79-15.93-1.24-1.27-2.49-2.54-3.73-3.82-.16-.16-.34-.3-.51-.45q0-2.67,0-5.35c0-.11-.05-.28.09-.33s.3.12.42.21l8.85,6.43,63.82,46.45,18.74,13.65c.15.11.29.23.43.35a23.14,23.14,0,0,0-2.58,2q-3.67,2.92-7.32,5.87l-6.64,5.34Z"/><path class="cls-9" d="M268.07,249.24h.13a7.64,7.64,0,0,0,2.72-.61,11.91,11.91,0,0,0,4-2.38c.7-.84,1.54-1.55,2.17-2.46a12.36,12.36,0,0,0,2.43-7.11q0-74.17,0-148.34c0-.31,0-.62,0-.93a16,16,0,0,0,2.34-5.84q0,10.2,0,20.4,0,66.54,0,133.08a16.74,16.74,0,0,1-2.47,9.39,11.32,11.32,0,0,1-2.48,2.92c-.23-.09-.38,0-.55.18a15.5,15.5,0,0,1-7.68,3.51l-.3.06c-.68.17-.83.07-.87-.63C267.47,250,267.47,249.46,268.07,249.24Z"/><path class="cls-10" d="M268.07,249.24c-.49.43-.39,1-.35,1.56,0,.18,0,.41.37.18a3,3,0,0,1,1.06-.23,14.66,14.66,0,0,0,7.1-3.4c.24-.21.44-.31.65,0a14.65,14.65,0,0,1-8.51,4.07,17.33,17.33,0,0,1-2.29.15q-7.27,0-14.55,0c-.22,0-.51.15-.66-.16,0-.35,0-.7,0-1.06q0-70.06,0-140.12a1.3,1.3,0,0,1,.7-1.36,10.81,10.81,0,0,0,1.31-.94c.22.27.12.6.12.9q0,68.06,0,136.11c0,1.26,0,2.53,0,3.79,0,.44.09.63.58.63,4.41,0,8.83,0,13.24,0A7.44,7.44,0,0,1,268.07,249.24Z"/><path class="cls-11" d="M65.58,251.23l3.35-2.73,6.21-5,5.17-4.14,6.22-5,7.34-5.89,6.78-5.49c1.73-1.4,3.48-2.78,5.22-4.17l6.21-5,4.59-3.68,6.26-5.06,5.17-4.14,6.71-5.38,5.2-4.2a1.53,1.53,0,0,1,.33-.15c1.36,1.31,2.73,2.59,4,4,.3.34.69.59,1,.92,5.43,5.65,11.08,11.07,16.54,16.69,5.08,5.23,10.34,10.29,15.41,15.53s10.1,10.07,15.05,15.19c2.36,2.44,4.79,4.82,7.16,7.25.12.13.31.21.32.43-.17.12-.36.06-.54.06H65.58Z"/><path class="cls-10" d="M274.91,246.25c-.29.7-1,1-1.56,1.31a12,12,0,0,1-4.63,1.77c-.18,0-.37.07-.52-.09a14.27,14.27,0,0,0,5.91-2.44C274.36,246.61,274.54,246.28,274.91,246.25Z"/></svg>