<svg id="Layer_1" data-name="Layer 1" xmlns="http://www.w3.org/2000/svg" viewBox="0 0 310 310"><defs><style>.cls-1{fill:#464646;}.cls-2{fill:#5aa9f9;}.cls-3{fill:#4177bb;}.cls-4{fill:#4176bb;}.cls-5{fill:#fefefe;}.cls-6{fill:#fdfdfd;}.cls-7{fill:#4177bc;}.cls-8{fill:#4a4a4a;}.cls-9{fill:#454545;}</style></defs><title>Servers icons</title><path class="cls-1" d="M263.94,214.93c0,12.36.17,24.72.05,37.08-.09,9.42-6.42,15.69-15.81,15.7q-92.06.07-184.12,0c-9.38,0-15.73-6.3-15.81-15.7-.12-12.36,0-24.72.06-37.08,1.37-1.9,3.44-1.91,5.44-1.91,33.15,0,66.3-.21,99.46.06,3.6.45,7.2-.51,10.8,0,9.68-.3,19.37.08,29.06-.22,4.43-.3,8.86.92,13.29,0,16.8.18,33.61,0,50.41.11C259.27,213,262,212.48,263.94,214.93Z"/><path class="cls-2" d="M263.94,214.93l-57.77,0c-3.7-1.32-6-4.29-8.18-7.25-5.47-7.31-11.8-14-16.77-21.67.54-4.71,1.17-9.36-2.39-13.44-1.14-1.32-.67-3.33-.2-5,6-21.27,11.94-42.53,17.78-63.82.92-3.35,2.48-6,5.87-7.46a10.54,10.54,0,0,0,5.36-5.39,5.7,5.7,0,0,1,3.22-3.29c6.22-2.62,12.94-2.23,19.43-3.13,9.51-1.32,19.17-.68,28.73-1.68,2.17-.23,4,.37,4.89,2.62Q263.92,150.2,263.94,214.93Z"/><path class="cls-2" d="M153.52,214.93c-18.69.07-37.37.18-56.06.19-16.39,0-32.77-.12-49.16-.19q0-27.18,0-54.36c1.59-6,7-8.55,11.33-11.91a249.08,249.08,0,0,1,45.55-28.44,6.36,6.36,0,0,1,3.94,1.49c1.2.82,2.53,1.73,3.93,1.58,7.38-.78,11.29,3.95,15.33,9,10.34,12.81,21.32,25.09,31.79,37.79,2,2.39,3,4.89,2.18,7.93-1,4.11,1.66,7.41,2.38,11.14-2,7.58-5.09,14.81-7.85,22.14C156.28,213,154.8,213.83,153.52,214.93Z"/><path class="cls-2" d="M48.39,147.5c0-26.71-.21-53.42-.06-80.13,0-6.7,3.42-11.72,10.06-14.06a5.81,5.81,0,0,1,4.88,2.18c10.93,12.39,21.61,25,32.28,37.6,3.6,4.25,7.92,8,10.39,13.11a12.91,12.91,0,0,1-2.53,7.32c-11.35,7.77-23.91,13.56-35.06,21.71-4.86,3.55-9.83,6.94-14.58,10.64C52.22,147.09,50.66,148.56,48.39,147.5Z"/><path class="cls-2" d="M251.16,52.56c7.72,1.59,12.53,7.09,12.81,14.78.09,2.55-.06,5.11-.1,7.67-3.09,3.1-7.27,2.62-10.94,2.67-13.53.19-26.92,1.77-40.32,3.3a27.24,27.24,0,0,1-4.28-.28c-3.11-.37-5.06-2-5.57-5.17.94-6.67,2.66-13.19,4-19.78.41-2,1.2-3.58,3.57-3.55C224,52.41,237.57,51.71,251.16,52.56Z"/><path class="cls-3" d="M105,106.28C95.77,97,87.9,86.53,79.22,76.79,72.25,69,65.94,60.6,58.38,53.32a4.6,4.6,0,0,1,3.44-.76c2.81-.82,5.68-.17,8.51-.37,5.31.79,7.59,5.42,10.6,8.84,9.91,11.28,19.64,22.73,29.34,34.2,1.68,2,3.5,3.92,2.38,6.87C110.51,104.26,108.29,106.28,105,106.28Z"/><path class="cls-3" d="M48.39,147.5a331.19,331.19,0,0,1,48.76-31.94c1.76-.93,3.61-1.69,5.42-2.52,2.42,2.15,4.15,4.54,2.81,8-4.4,4.24-10.17,6.26-15.29,9.33-14.79,8.87-29,18.5-41.76,30.19Z"/><path class="cls-3" d="M208,79.46c18.55-2.56,37.23-3.59,55.92-4.45l0,10.46c-2.63-1.52-5.33-.21-8-.21-15.22,0-30.3,1.67-45.36,3.64C208,86.2,206.68,83.19,208,79.46Z"/><path class="cls-4" d="M71.79,52.76l-10-.2c4.39-.88,8.85-.61,13.27-.61q60.1-.11,120.2,0,25.41,0,50.82,0c1.69,0,3.46-.37,5,.64-12.5.06-25,.23-37.51.1-3.36,0-4.58.88-5.26,4.34-1.26,6.42-1.7,13.09-4.65,19.11-3.28,1.75-6.38,1.25-9.36-.77-1.2-1.66-1.07-3.45-.64-5.35.77-3.36,1.5-6.73,2-10.14.66-4.21-.06-5-4.44-5.25-1.58-.07-3.16,0-4.74,0H80.94C77.76,54.58,74.59,54.61,71.79,52.76Z"/><path class="cls-5" d="M179.21,240.9c1.5-4.5,2.86-7.94,3.76-11.51s2.5-5.56,6.47-4.77a18.1,18.1,0,0,0,3.44,0c4.63,0,5.73,1.4,4.67,5.82-.18.74-.31,1.57-1.2,1.45-4.21-.58-3.2,2.42-3.22,4.65,0,3.45,0,6.9,0,10.35,0,2.27-.9,4.8,3.24,4.84,2.21,0,.84,2.83,1.15,4.35s-.4,2.16-1.91,2a2.36,2.36,0,0,0-.43,0c-9.43.72-9.43.72-9.43-8.85a20.28,20.28,0,0,0-.81-6.86c-.93,2.62-1.87,5.23-2.79,7.85s-1.77,5.05-3,8.44l-5.89-16.78-.69.12c0,4.22-.2,8.44.07,12.64.19,3-.94,3.77-3.64,3.47-1.56-.17-3.18.12-4.73-.08s-3.85,1.17-3.71-1.94c.09-2.05-1.09-5,2.94-4.63,1.64.15,1.77-1.06,1.77-2.3,0-5,0-10.06,0-15.09,0-1.39-.43-2.19-2-2.11-4.55.23-2.44-3.25-2.7-5.19-.38-2.93,2.06-2.09,3.58-2.12,9.61-.21,9.6-.18,12.5,8.85C177.4,235.64,178.14,237.73,179.21,240.9Z"/><path class="cls-5" d="M154.26,241.36c1.71,1.71,3.69,3.2,4.3,5.75,1.48,6.14-2.18,10.92-8.55,11-4.75.05-9.5,0-14.24,0-1.74,0-2.88-.32-2.51-2.33.3-1.58-1.15-4.26,2-4.21,2.46,0,2.78-1,2.73-3.1-.12-4.6,0-9.21-.05-13.81,0-1.18.49-2.84-1.68-2.67-4.39.33-2.84-3-3-5-.21-3.16,2.3-2.25,4-2.29,3.74-.09,7.48,0,11.22,0,4.34-.08,8.05,1,9.8,5.41C159.9,234.16,158.56,237.76,154.26,241.36Z"/><path class="cls-6" d="M122.94,258.11a21.56,21.56,0,0,1-4.3-.06c-1.37-.28-3.91,1.41-3.89-1.65,0-2.05-1.46-5.29,3-4.94,1.81.14,1.36-1.48,1.37-2.52,0-4,.06-8,0-12.07,0-2.32,1.11-5-3.34-5.17-2.22-.08-.7-3.42-1-5.25-.29-1.63.89-1.82,2.17-1.81,3.16,0,6.34-.19,9.48.09,1.64.14,4.54-1.63,4.67,1.83.08,2.27,1.66,6-3.29,5.5-1.16-.11-1.27.9-1.27,1.8,0,5.17,0,10.35,0,15.52,0,1.39.4,2.22,1.92,2.13,4.16-.24,2.55,2.91,2.69,4.83.21,2.83-2.12,1.57-3.41,1.73A38.61,38.61,0,0,1,122.94,258.11Z"/><path class="cls-2" d="M193.28,215l-29.37,0a4.07,4.07,0,0,1-.39-4.06c2.54-6.6,4.75-13.32,7.39-19.89a4.28,4.28,0,0,1,3.92-.62c7.59,5.64,12.26,13.82,18.12,21A3.1,3.1,0,0,1,193.28,215Z"/><path class="cls-7" d="M193.28,215l-18.14-23.27c1.12-3.49,3.71-5,7.18-5.42,4.49,3.06,7,7.86,10.37,11.9,4.6,5.51,9,11.2,13.48,16.81Z"/><path class="cls-3" d="M171,191.9c1.59,1.19.7,2.56.22,3.84-2.41,6.4-4.87,12.79-7.31,19.19H153.52c3.61-8.63,5.92-17.78,10.31-26.1C167.14,187.71,169.43,188.95,171,191.9Z"/><path class="cls-5" d="M171,191.9a15.62,15.62,0,0,1-7.16-3.07c-3.32-3.53-4.59-7.66-3-12.28.65-1.89,0-2.94-1.09-4.2q-19.07-22.54-38.1-45.12c-1-1.22-1.92-2.37-3.92-1.89-5,1.22-8.94-.86-12.35-4.31a15.1,15.1,0,0,1-2.81-8,15.44,15.44,0,0,1,2.39-6.76,15,15,0,0,1,7.24-4.94c3.49-3,6.84-2.74,11.72,1,2.48,2.41,5.56,4.45,5.14,8.59-.59,6.06,3.16,10,6.67,14.21,9.52,11.48,19.44,22.63,28.71,34.33a14.2,14.2,0,0,0,4.39,4.06c2.15-4.94,3.14-10.13,4.62-15.14,4.44-15,8.47-30.11,12.59-45.19,1-3.68,1.12-7-1.18-10.2-1.94-2.9-1.1-6-.7-9.08,1.11-6.56,5.67-10.35,10.79-9,3-.06,6-.15,8.78,1.14L208,79.46a18.18,18.18,0,0,1,2.58,9.43c-1.46,4.8-4.14,8.54-9.18,10-1.74.5-2,1.76-2.4,3.17q-9.29,33.37-18.63,66.72a3.69,3.69,0,0,0,.7,3.92c3.64,4.16,3.77,8.78,1.3,13.59-1.73,2.68-4.34,4.21-7.18,5.42Z"/><path class="cls-2" d="M123.27,103.51c-3.44-2-7.06-3.06-11.07-2.17-3.53-6.34-9-11.11-13.48-16.7C90,73.78,80.2,63.86,71.79,52.76c41,0,82,0,122.93-.1,3.78,0,4.71.89,3.79,4.61-1.45,5.84-2.39,11.8-3.55,17.7a14,14,0,0,0-9.52,8.77,6.92,6.92,0,0,1-4.56,2.92,370.88,370.88,0,0,0-53,16.77A7,7,0,0,1,123.27,103.51Z"/><path class="cls-8" d="M150.13,235.61c.37,2-.58,2.62-2.83,2.62-2.83,0-2.18-1.83-2.37-3.45-.28-2.34.8-2.78,2.92-2.86C150.82,231.8,150,233.75,150.13,235.61Z"/><path class="cls-9" d="M150.08,248c.08,1.86.52,3.68-2.55,3.57-2.56-.09-2.6-1.38-2.59-3.25s-.19-3.54,2.72-3.52C150.38,244.85,150.23,246.29,150.08,248Z"/><path class="cls-2" d="M186.57,93.13c2.75,2.13,2.95,4.71,2,8-6,21.4-11.94,42.85-17.9,64.28a25.08,25.08,0,0,1-1.22,2.81c-6.43-7.61-12.62-14.92-18.8-22.25s-12.19-14.91-18.63-22c-3.37-3.74-5.58-7.43-4.14-12.55.92-2.2,2.91-3.08,4.91-3.89a305.48,305.48,0,0,1,48-14.93C182.79,92.07,184.8,91.64,186.57,93.13Z"/><path class="cls-3" d="M186.57,93.13a375.21,375.21,0,0,0-58.66,18.2c-.55-3.2-2.43-5.61-4.65-7.83C142,95,161.65,89.2,181.66,84.56c1.26-.29,2.52-.55,3.78-.82C185.26,86.94,185.17,90.13,186.57,93.13Z"/></svg>