<svg id="Layer_1" data-name="Layer 1" xmlns="http://www.w3.org/2000/svg" viewBox="0 0 310 310"><defs><style>.cls-1{fill:#0071c5;}.cls-2{fill:#0070c3;}.cls-3{fill:#0072c5;}</style></defs><title>Servers icons</title><path class="cls-1" d="M271.65,204.22c-.23.68-.43,1.37-.71,2-1.66,3.88-4.7,5.93-8.78,6.61a17.21,17.21,0,0,1-2.83.19H187.69c-1,0-.84.1-.84-.85q0-29.74,0-59.48a1.59,1.59,0,0,1,.06-.73c.25,0,.41.2.59.32l13.62,9.35a4,4,0,0,0,4.63,0q18.61-12.41,37.22-24.82,14.08-9.38,28.18-18.72c.15-.1.29-.26.5-.25Z"/><path class="cls-1" d="M271.65,99.68c-.22,0-.35.14-.5.24l-52,35-14.5,9.77a2.11,2.11,0,0,1-2.4,0c-5-3.13-10-6.3-15-9.45a.7.7,0,0,1-.37-.68q0-22,0-44c0-.6.3-.56.7-.56h56.13c6.4,0,12.8.07,19.2,0A8.46,8.46,0,0,1,269.42,93a12.32,12.32,0,0,1,2.23,3.65Z"/><path class="cls-2" d="M178.63,41.92a.81.81,0,0,0-.27-.65h-.23c-1.17.18-2.36.18-3.53.41-4.57.9-9.14,1.77-13.72,2.66l-20.69,4-21,4.07-20.58,4-21.19,4.1L57.67,64.32,45.46,66.67a1.42,1.42,0,0,0-1.07.51V243.31a1.38,1.38,0,0,0,1,.5q8.61,1.83,17.23,3.62l33.13,6.95,26,5.44c10.64,2.22,21.26,4.5,31.91,6.67,7.06,1.43,14,3.25,21.2,4.21h3.52a.81.81,0,0,0,.27-.65c0-.32,0-.64,0-1q0-113.09,0-226.19C178.64,42.57,178.64,42.24,178.63,41.92ZM139.85,173.87A36.23,36.23,0,0,1,130.42,189a25.44,25.44,0,0,1-15.58,7,27.44,27.44,0,0,1-14.91-2.51,28.21,28.21,0,0,1-10.31-9,39.06,39.06,0,0,1-6.9-16.8,62.85,62.85,0,0,1,.89-26,37.62,37.62,0,0,1,10-18.15,25.61,25.61,0,0,1,15-7.3,28.18,28.18,0,0,1,14.29,1.55,26.55,26.55,0,0,1,11.62,9.32,39.93,39.93,0,0,1,6.86,16.16,63.5,63.5,0,0,1,1.12,12.19A57.65,57.65,0,0,1,139.85,173.87Z"/><path class="cls-3" d="M127.84,156.39a40,40,0,0,1-2,13.58,18.29,18.29,0,0,1-5.55,8.36,12.55,12.55,0,0,1-9.11,2.75c-4.74-.33-8-2.95-10.46-6.81A27,27,0,0,1,97,163.35a49.67,49.67,0,0,1,.12-14.93,25.87,25.87,0,0,1,5.23-12.52A13,13,0,0,1,119.16,133a15.88,15.88,0,0,1,5.59,6.72,31.55,31.55,0,0,1,2.7,9.91A56.29,56.29,0,0,1,127.84,156.39Z"/></svg>